# xmcd
#
# Track frame offsets:
#	150
#	19995
#	43850
#	68916
#	80419
#	106347
#	121593
#	138042
#	155001
#	168895
#	187288
#	202721
#	219142
#
# Disc length: 3221 seconds
#
# Revision: 0
# Processed by: cddbd v1.5PL3 Copyright (c) Steve Scherf et al.
# Submitted via: EasyCDDAExtractor 5.0.2.1
#
DISCID=a80c930d
DTITLE=Bleu Jackson - Feel that thrill
DYEAR=2000
DGENRE=Blues
TTITLE0=Gotta love this town
TTITLE1=Got the feeling
TTITLE2=I believe in your love
TTITLE3=Back into the blues
TTITLE4=I need you
TTITLE5=Bringin' the blues to you
TTITLE6=Darkness
TTITLE7=Where have you been so long
TTITLE8=Feel that thrill
TTITLE9=Tight red dress
TTITLE10=Bedrock bottom
TTITLE11=Into the arms of love
TTITLE12=500% more man
EXTD=
EXTT0=
EXTT1=
EXTT2=
EXTT3=
EXTT4=
EXTT5=
EXTT6=
EXTT7=
EXTT8=
EXTT9=
EXTT10=
EXTT11=
EXTT12=
PLAYORDER=
